<?xml version="1.0" encoding="utf-8"?>
<!-- Generator: Adobe Illustrator 22.1.0, SVG Export Plug-In . SVG Version: 6.00 Build 0)  -->
<svg version="1.1" id="Layer_1" xmlns="http://www.w3.org/2000/svg" xmlns:xlink="http://www.w3.org/1999/xlink" x="0px" y="0px"
	 viewBox="0 0 60 60" style="enable-background:new 0 0 60 60;" xml:space="preserve">
<style type="text/css">
	.st0{fill:#7BB8E5;}
	.st1{fill:#006EA6;}
	.st2{display:none;fill:#006EA6;}
	.st3{display:none;fill:#7BB8E5;}
</style>
<g>
	<rect x="36" y="5" class="st0" width="1" height="2"/>
	<rect x="39" y="9" class="st0" width="1" height="2"/>
	<rect x="39" y="13" class="st0" width="1" height="2"/>
	<g>
		<rect x="4" y="39" class="st0" width="2" height="3"/>
		<g>
			<path class="st1" d="M2,60h6c1.1,0,2-0.9,2-2v-2h22.6c5,0,9.9-1.4,14.2-4.1c6.4-4,10.9-10.6,12.2-18.1l0.4-2.5
				c0.2-1.1-0.1-2.2-0.8-3.1c-0.7-0.9-1.8-1.3-2.9-1.3c-0.6,0-1.2,0.2-1.7,0.4V23h1c0.4,0,0.8-0.2,0.9-0.6c0.2-0.4,0.1-0.8-0.2-1.1
				l-8-8c-0.4-0.4-1-0.4-1.4,0L44,15.6V2c0-0.6-0.4-1-1-1H33c-0.6,0-1,0.4-1,1v11h-4.1c-0.8-1.7-1.3-2.7-1.8-3.2l2.5-6.2
				c0.3-0.7,0.1-1.4-0.4-1.9c-0.5-0.5-1.3-0.6-2-0.3l-1.9,0.9l-1.2-1.6c-0.3-0.4-0.8-0.7-1.3-0.7c-0.5,0-1,0.1-1.4,0.5l-1.5,1.5
				l-1-1.3c-0.3-0.4-0.8-0.7-1.3-0.7c-0.5,0-1,0.1-1.3,0.5l-1.9,1.9l-2.9-0.8c-0.7-0.2-1.4,0-1.8,0.6C8.4,2.8,8.4,3.5,8.7,4.1l3,5.6
				C9.6,11.6,7,17,7,21.9V25c0,3.3,2.7,6,6,6h38.4l-2.1,4.2l-5.5,2.4C43.2,35.5,41.3,34,39,34H24.6c-5.2,0-10.2,1.4-14.6,4.1V36
				c0-1.1-0.9-2-2-2H2c-1.1,0-2,0.9-2,2v22C0,59.1,0.9,60,2,60L2,60z M13.2,4.4c0.6,0.2,1.3,0,1.7-0.4l1.8-1.8l1,1.3
				C18,3.9,18.5,4.2,19,4.2c0.5,0,1-0.1,1.3-0.5l1.5-1.5L23,3.7c0.5,0.7,1.4,0.9,2.2,0.5l1.5-0.7L24.3,9h-2.7l1.3-2.6l-1.8-0.9
				L19.4,9h-1.8l-1.4-2.9L14.4,7l1,2h-1.8l-2.8-5.2L13.2,4.4z M23,14v15H13c-2.2,0-4-1.8-4-4v-3.1c0-5.4,3.3-10.3,4.3-10.9h11.3
				c0.2,0.2,0.5,0.7,1.2,2H24C23.4,13,23,13.4,23,14L23,14z M25,15h7v14h-7V15z M47,15.4l5.6,5.6H41.4L47,15.4z M34,3h8v14.6
				l-3.7,3.7c-0.3,0.3-0.4,0.7-0.2,1.1c0.2,0.4,0.5,0.6,0.9,0.6h1v6h-6V3z M42,23h10v6h-2v-4c0-0.6-0.4-1-1-1h-4c-0.6,0-1,0.4-1,1v4
				h-2V23z M48,29h-2v-3h2V29z M24.6,36H39c1.7,0,3,1.3,3,3c0,1.7-1.3,3-3,3H23v2h16c2.5,0,4.6-1.9,4.9-4.3l6.5-2.8
				c0.2-0.1,0.4-0.3,0.5-0.5l3.2-6.5c0.3-0.6,0.9-1,1.6-1c0.5,0,1,0.2,1.4,0.6c0.3,0.4,0.5,0.9,0.4,1.4L57,33.5
				c-1.2,6.9-5.3,13-11.3,16.7c-3.9,2.5-8.5,3.8-13.1,3.8H10V40.5C14.3,37.6,19.4,36,24.6,36L24.6,36z M2,36h6l0,22H2V36z M2,36"/>
			<g>
				<rect x="27" y="17" class="st0" width="1" height="2"/>
				<rect x="30" y="17" class="st0" width="1" height="2"/>
				<rect x="27" y="21" class="st0" width="1" height="2"/>
				<rect x="30" y="21" class="st0" width="1" height="2"/>
				<rect x="27" y="25" class="st0" width="1" height="2"/>
				<rect x="30" y="25" class="st0" width="1" height="2"/>
			</g>
			<g>
				<rect x="39" y="5" class="st0" width="1" height="2"/>
				<rect x="36" y="9" class="st0" width="1" height="2"/>
				<rect x="36" y="13" class="st0" width="1" height="2"/>
				<rect x="36" y="17" class="st0" width="1" height="2"/>
				<rect x="39" y="17" class="st0" width="1" height="2"/>
			</g>
			<rect x="51" y="2" class="st0" width="2" height="2"/>
			<rect x="53" class="st0" width="2" height="2"/>
			<rect x="55" y="2" class="st0" width="2" height="2"/>
			<rect x="53" y="4" class="st0" width="2" height="2"/>
			<rect x="58" y="7" class="st0" width="2" height="2"/>
			<rect x="51" y="10" class="st0" width="2" height="2"/>
			<rect y="9" class="st0" width="2" height="2"/>
			<rect x="2" y="7" class="st0" width="2" height="2"/>
			<rect x="4" y="9" class="st0" width="2" height="2"/>
			<rect x="2" y="11" class="st0" width="2" height="2"/>
			<rect y="17" class="st0" width="2" height="2"/>
			<rect x="4" class="st0" width="2" height="2"/>
			<path class="st1" d="M19.9,18.4h-1.8c-0.1-1-0.6-1.9-1.4-2.5h3.2c0.2,0,0.4-0.2,0.4-0.4s-0.2-0.4-0.4-0.4h-7.5
				c-0.2,0-0.4,0.2-0.4,0.4s0.2,0.4,0.4,0.4h2.1c1.5,0,2.7,1.1,2.8,2.5h-5c-0.2,0-0.4,0.2-0.4,0.4s0.2,0.4,0.4,0.4h5
				c-0.2,1.4-1.4,2.5-2.8,2.5h-2.1c-0.2,0-0.4,0.2-0.4,0.4c0,0.1,0,0.2,0.1,0.3l5.3,5.1c0.1,0.1,0.4,0.1,0.5,0
				c0.1-0.1,0.1-0.4,0-0.5l-4.7-4.4h1.3c1.8,0,3.4-1.4,3.5-3.2h1.8c0.2,0,0.4-0.2,0.4-0.4S20.1,18.4,19.9,18.4L19.9,18.4z
				 M19.9,18.4"/>
		</g>
	</g>
</g>
<rect x="-653" y="-238" class="st2" width="54" height="39"/>
<rect x="-626" y="-167" class="st3" width="50.6" height="50.6"/>
</svg>
