<?xml version="1.0" encoding="iso-8859-1"?>
<!-- Generator: Adobe Illustrator 22.1.0, SVG Export Plug-In . SVG Version: 6.00 Build 0)  -->
<svg version="1.1" id="Layer_1" xmlns="http://www.w3.org/2000/svg" xmlns:xlink="http://www.w3.org/1999/xlink" x="0px" y="0px"
	 viewBox="0 0 59.969 60.766" style="enable-background:new 0 0 59.969 60.766;" xml:space="preserve">
<path style="display:none;fill:#78B9EB;" d="M-145.513,277.365V107.034h-68.132v170.331H-145.513z"/>
<path style="display:none;fill:#78B9EB;" d="M50.37-3.683c0,37.629-30.503,68.132-68.132,68.132S-85.895,33.947-85.895-3.683
	s30.503-68.132,68.132-68.132S50.37-41.312,50.37-3.683z"/>
<path style="display:none;fill:#78B9EB;" d="M220.704-63.301c0,37.629-30.507,68.132-68.132,68.132
	c-37.629,0-68.136-30.503-68.136-68.132s30.507-68.132,68.136-68.132C190.197-131.433,220.704-100.93,220.704-63.301z"/>
<g>
	<path style="fill:#1E81CE;" d="M59.374,34.385l-1.436-1.426c-1.582-1.58-4.146-1.58-5.727,0l-8.661,8.666v-1.114
		c0-1.678-1.36-3.038-3.039-3.038H14.179c-0.269,0-0.526,0.107-0.716,0.297l-3.335,3.335v-1.606c0-0.56-0.453-1.013-1.013-1.013
		H1.013C0.453,38.485,0,38.939,0,39.498v20.255c0,0.56,0.453,1.013,1.013,1.013h8.102c0.559,0,1.013-0.453,1.013-1.013v-1.606
		l4.471-4.471h27.938c0.269,0,0.526-0.107,0.716-0.297l16.123-16.123c0.791-0.794,0.791-2.078,0-2.873H59.374z M8.102,58.741H2.026
		v-18.23h6.077V58.741z M42.117,51.651H14.179c-0.269,0-0.526,0.107-0.716,0.297l-3.335,3.335V43.968l4.47-4.47h25.913
		c0.559,0,1.013,0.453,1.013,1.013v3.039H28.358v2.026h14.179c0.56,0,1.013-0.453,1.013-1.013l10.094-10.171
		c0.791-0.79,2.073-0.79,2.864,0l1.436,1.432L42.117,51.651z"/>
	<path style="fill:#1E81CE;" d="M24.307,29.37c-0.56,0-1.013-0.453-1.013-1.013h-2.026c0.006,1.283,0.816,2.424,2.026,2.852v1.199
		h2.026V31.21c1.579-0.556,2.408-2.287,1.852-3.866c-0.428-1.215-1.577-2.027-2.865-2.025c-0.56,0-1.013-0.453-1.013-1.013
		c0-0.56,0.453-1.013,1.013-1.013c0.559,0,1.013,0.453,1.013,1.013h2.026c-0.005-1.283-0.816-2.425-2.026-2.852v-1.199h-2.026v1.199
		c-1.579,0.556-2.408,2.287-1.852,3.866c0.428,1.215,1.577,2.026,2.865,2.024c0.559,0,1.013,0.453,1.013,1.013
		C25.319,28.917,24.866,29.37,24.307,29.37z"/>
	<path style="fill:#1E81CE;" d="M24.307,35.447c5.034,0,9.115-4.081,9.115-9.115c0-5.034-4.081-9.115-9.115-9.115
		c-5.034,0-9.115,4.081-9.115,9.115C15.198,31.364,19.275,35.441,24.307,35.447z M24.307,19.243c3.915,0,7.09,3.174,7.09,7.09
		c0,3.915-3.174,7.09-7.09,7.09c-3.916,0-7.09-3.174-7.09-7.09C17.222,22.419,20.393,19.247,24.307,19.243z"/>
	<path style="fill:#1E81CE;" d="M28.358,25.319h2.026v2.026h-2.026V25.319z"/>
	<path style="fill:#1E81CE;" d="M18.23,25.319h2.026v2.026H18.23V25.319z"/>
	<path style="fill:#1E81CE;" d="M44.562,22.281c-0.56,0-1.013-0.453-1.013-1.013h-2.026c0.005,1.283,0.816,2.424,2.026,2.852v1.199
		h2.026V24.12c1.579-0.556,2.408-2.287,1.852-3.866c-0.428-1.215-1.577-2.027-2.865-2.024c-0.559,0-1.013-0.454-1.013-1.013
		c0-0.56,0.453-1.013,1.013-1.013c0.56,0,1.013,0.453,1.013,1.013H47.6c-0.005-1.283-0.816-2.424-2.026-2.852v-1.199h-2.026v1.199
		c-1.579,0.556-2.408,2.287-1.852,3.866c0.428,1.215,1.577,2.027,2.865,2.025c0.559,0,1.013,0.453,1.013,1.013
		C45.575,21.828,45.121,22.281,44.562,22.281z"/>
	<path style="fill:#1E81CE;" d="M44.562,28.358c5.032-0.006,9.109-4.083,9.115-9.115V9.115h-2.026v4.412
		c-3.144-3.916-8.867-4.541-12.783-1.396c-0.515,0.413-0.983,0.881-1.396,1.396v-7.45h-2.026v13.166
		C35.453,24.274,39.531,28.352,44.562,28.358z M44.562,12.153c3.915,0,7.089,3.174,7.089,7.09c0,3.916-3.174,7.09-7.089,7.09
		c-3.916,0-7.09-3.174-7.09-7.09C37.477,15.329,40.649,12.158,44.562,12.153z"/>
	<path style="fill:#1E81CE;" d="M48.613,18.23h2.026v2.026h-2.026V18.23z"/>
	<path style="fill:#1E81CE;" d="M38.485,18.23h2.026v2.026h-2.026V18.23z"/>
	<path style="fill:#1E81CE;" d="M17.217,4.051h2.026v10.128h-2.026V4.051z"/>
	<path style="fill:#1E81CE;" d="M17.217,0h2.026v2.026h-2.026V0z"/>
	<path style="fill:#1E81CE;" d="M23.294,9.115h2.026v6.077h-2.026V9.115z"/>
	<path style="fill:#1E81CE;" d="M23.294,5.064h2.026V7.09h-2.026V5.064z"/>
	<path style="fill:#1E81CE;" d="M29.371,6.077h2.026v6.077h-2.026V6.077z"/>
	<path style="fill:#1E81CE;" d="M29.371,2.026h2.026v2.026h-2.026V2.026z"/>
	<path style="fill:#1E81CE;" d="M35.447,2.026h2.026v2.026h-2.026V2.026z"/>
	<path style="fill:#1E81CE;" d="M43.549,0h2.026v2.026h-2.026V0z"/>
	<path style="fill:#1E81CE;" d="M43.549,4.051h2.026v4.051h-2.026V4.051z"/>
	<path style="fill:#1E81CE;" d="M51.651,5.064h2.026V7.09h-2.026V5.064z"/>
</g>
</svg>
