<svg height="511pt" viewBox="-3 1 511 511.99996" width="511pt" xmlns="http://www.w3.org/2000/svg"><path d="m77.300781 503.464844v-170.664063h-68.265625v170.664063zm0 0" fill="#78b9eb"/><path d="m273.566406 221.867188c0 37.703124-30.5625 68.265624-68.265625 68.265624s-68.265625-30.5625-68.265625-68.265624c0-37.703126 30.5625-68.265626 68.265625-68.265626s68.265625 30.5625 68.265625 68.265626zm0 0" fill="#78b9eb"/><path d="m444.234375 162.132812c0 37.703126-30.566406 68.265626-68.265625 68.265626-37.703125 0-68.269531-30.5625-68.269531-68.265626 0-37.703124 30.566406-68.265624 68.269531-68.265624 37.699219 0 68.265625 30.5625 68.265625 68.265624zm0 0" fill="#78b9eb"/><g fill="#1e81ce"><path d="m500.765625 289.714844-12.097656-12.015625c-13.328125-13.316407-34.929688-13.316407-48.257813 0l-72.976562 73.019531v-9.386719c0-14.136719-11.460938-25.597656-25.601563-25.597656h-221.863281c-2.265625 0-4.433594.898437-6.035156 2.5l-28.097656 28.097656v-13.53125c0-4.714843-3.820313-8.535156-8.535157-8.535156h-68.265625c-4.714844 0-8.535156 3.820313-8.535156 8.535156v170.664063c0 4.714844 3.820312 8.535156 8.535156 8.535156h68.265625c4.710938 0 8.53125-3.820312 8.53125-8.535156v-13.53125l37.667969-37.667969h235.398438c2.265624 0 4.433593-.898437 6.035156-2.5l135.851562-135.847656c6.664063-6.691407 6.664063-17.511719 0-24.203125zm-432 205.21875h-51.199219v-153.601563h51.199219zm286.601563-59.734375h-235.398438c-2.265625 0-4.433594.898437-6.035156 2.5l-28.097656 28.101562v-95.335937l37.664062-37.664063h218.335938c4.710937 0 8.53125 3.820313 8.53125 8.53125v25.601563h-110.933594v17.066406h119.464844c4.714843 0 8.535156-3.820312 8.535156-8.535156l85.050781-85.699219c6.664063-6.660156 17.46875-6.660156 24.132813 0l12.101562 12.066406zm0 0"/><path d="m205.300781 247.464844c-4.714843 0-8.535156-3.820313-8.535156-8.53125h-17.066406c.046875 10.808594 6.875 20.425781 17.066406 24.03125v10.101562h17.066406v-10.101562c13.304688-4.6875 20.292969-19.273438 15.605469-32.574219-3.605469-10.238281-13.285156-17.078125-24.136719-17.058594-4.714843 0-8.535156-3.820312-8.535156-8.53125 0-4.714843 3.820313-8.535156 8.535156-8.535156 4.710938 0 8.53125 3.820313 8.53125 8.535156h17.066407c-.042969-10.8125-6.875-20.429687-17.066407-24.03125v-10.101562h-17.066406v10.101562c-13.304687 4.6875-20.289063 19.269531-15.605469 32.574219 3.605469 10.234375 13.289063 17.074219 24.140625 17.054688 4.710938 0 8.53125 3.820312 8.53125 8.535156 0 4.710937-3.820312 8.53125-8.53125 8.53125zm0 0"/><path d="m205.300781 298.667969c42.414063 0 76.800781-34.386719 76.800781-76.800781 0-42.417969-34.386718-76.800782-76.800781-76.800782-42.417969 0-76.800781 34.382813-76.800781 76.800782.050781 42.394531 34.40625 76.746093 76.800781 76.800781zm0-136.535157c32.988281 0 59.734375 26.742188 59.734375 59.734376 0 32.988281-26.746094 59.734374-59.734375 59.734374-32.992187 0-59.734375-26.746093-59.734375-59.734374.039063-32.972657 26.761719-59.695313 59.734375-59.734376zm0 0"/><path d="m239.433594 213.332031h17.066406v17.066407h-17.066406zm0 0"/><path d="m154.101562 213.332031h17.066407v17.066407h-17.066407zm0 0"/><path d="m375.96875 187.734375c-4.714844 0-8.535156-3.820313-8.535156-8.535156h-17.066406c.042968 10.808593 6.875 20.425781 17.066406 24.03125v10.101562h17.066406v-10.101562c13.304688-4.6875 20.289062-19.269531 15.605469-32.574219-3.605469-10.238281-13.285157-17.078125-24.140625-17.054688-4.710938 0-8.53125-3.824218-8.53125-8.535156 0-4.714844 3.820312-8.535156 8.53125-8.535156 4.714844 0 8.535156 3.820312 8.535156 8.535156h17.066406c-.042968-10.808594-6.875-20.425781-17.066406-24.03125v-10.101562h-17.066406v10.101562c-13.304688 4.6875-20.289063 19.273438-15.605469 32.574219 3.605469 10.238281 13.285156 17.078125 24.140625 17.058594 4.710938 0 8.53125 3.820312 8.53125 8.53125 0 4.714843-3.820312 8.535156-8.53125 8.535156zm0 0"/><path d="m375.96875 238.933594c42.394531-.050782 76.746094-34.40625 76.796875-76.800782v-85.332031h-17.066406v37.171875c-26.492188-32.992187-74.714844-38.257812-107.703125-11.761718-4.335938 3.480468-8.28125 7.425781-11.761719 11.761718v-62.773437h-17.066406v110.933593c.050781 42.394532 34.40625 76.75 76.800781 76.800782zm0-136.535156c32.988281 0 59.730469 26.746093 59.730469 59.734374 0 32.992188-26.742188 59.734376-59.730469 59.734376-32.992188 0-59.734375-26.742188-59.734375-59.734376.035156-32.972656 26.757813-59.695312 59.734375-59.734374zm0 0"/><path d="m410.101562 153.601562h17.066407v17.066407h-17.066407zm0 0"/><path d="m324.765625 153.601562h17.066406v17.066407h-17.066406zm0 0"/><path d="m145.566406 34.132812h17.066406v85.332032h-17.066406zm0 0"/><path d="m145.566406 0h17.066406v17.066406h-17.066406zm0 0"/><path d="m196.765625 76.800781h17.066406v51.199219h-17.066406zm0 0"/><path d="m196.765625 42.667969h17.066406v17.066406h-17.066406zm0 0"/><path d="m247.96875 51.199219h17.066406v51.199219h-17.066406zm0 0"/><path d="m247.96875 17.066406h17.066406v17.066406h-17.066406zm0 0"/><path d="m299.167969 17.066406h17.066406v17.066406h-17.066406zm0 0"/><path d="m367.433594 0h17.066406v17.066406h-17.066406zm0 0"/><path d="m367.433594 34.132812h17.066406v34.132813h-17.066406zm0 0"/><path d="m435.699219 42.667969h17.066406v17.066406h-17.066406zm0 0"/></g></svg>