<?xml version="1.0" encoding="iso-8859-1"?>
<!-- Generator: Adobe Illustrator 22.1.0, SVG Export Plug-In . SVG Version: 6.00 Build 0)  -->
<svg version="1.1" id="Capa_1" xmlns="http://www.w3.org/2000/svg" xmlns:xlink="http://www.w3.org/1999/xlink" x="0px" y="0px"
	 viewBox="-49 141 512 512" style="enable-background:new -49 141 512 512;" xml:space="preserve">
<g>
	<path style="fill:#006DA5;" d="M420.182,355.872l-39-3.8c-4.268-16.429-10.868-32.162-19.6-46.718l24.9-30.074
		c3.275-3.953,3.026-9.744-0.578-13.4l-43.44-43.97c-3.643-3.686-9.499-3.977-13.49-0.672l-30.085,24.922
		c-14.572-8.713-30.286-15.356-46.689-19.738l-3.757-39.25c-0.48-5.155-4.777-9.114-9.954-9.172h-62.4
		c-5.176,0.059-9.473,4.018-9.954,9.172l-3.757,39.177c-16.444,4.32-32.188,10.961-46.757,19.724L85.6,217.219
		c-3.975-3.289-9.799-3.015-13.447,0.633L28.13,261.826c-3.652,3.647-3.928,9.475-0.638,13.451l24.926,30.133
		c-8.721,14.554-15.352,30.261-19.7,46.661l-38.9,3.8c-5.081,0.518-8.916,4.847-8.818,9.954v62.35
		c-0.098,5.107,3.737,9.435,8.818,9.953l39,3.8c4.268,16.429,10.868,32.162,19.6,46.718l-24.9,30.074
		c-3.293,3.973-3.023,9.798,0.624,13.449l44.015,43.97c3.65,3.644,9.472,3.915,13.444,0.625l30.083-24.925
		c14.572,8.716,30.286,15.36,46.69,19.742l3.757,39.246c0.481,5.155,4.778,9.115,9.955,9.173h62.4
		c5.177-0.059,9.473-4.018,9.954-9.172l3.757-39.18c16.442-4.323,32.185-10.963,46.756-19.722l30.021,24.855
		c3.974,3.289,9.798,3.015,13.446-0.633l44.021-43.974c3.655-3.649,3.929-9.482,0.633-13.458L362.117,488.6
		c8.749-14.551,15.396-30.267,19.743-46.68l38.335-3.793c5.076-0.525,8.903-4.85,8.805-9.952v-62.35
		C429.098,360.718,425.263,356.39,420.182,355.872L420.182,355.872z M409,419.11l-36.4,3.6c-4.3,0.433-7.819,3.611-8.687,7.844
		c-4.198,19.032-11.833,37.139-22.531,53.43c-2.371,3.674-2.08,8.462,0.718,11.822l23.755,28.649l-31.129,31.1l-28.6-23.7
		c-3.4-2.817-8.245-3.07-11.92-0.624c-16.262,10.734-34.368,18.371-53.405,22.525c-4.262,0.983-7.414,4.587-7.821,8.942L229.4,600
		h-44.229l-3.57-37.3c-0.411-4.342-3.571-7.927-7.827-8.88c-19.055-4.282-37.186-11.95-53.53-22.64
		c-3.662-2.363-8.432-2.083-11.792,0.693l-28.606,23.691l-31.141-31.107l23.7-28.652c2.813-3.4,3.065-8.243,0.619-11.916
		c-10.731-16.23-18.35-34.315-22.466-53.332c-0.821-4.223-4.312-7.409-8.592-7.844L5,419.1v-44.2l36.967-3.613
		c4.305-0.428,7.83-3.606,8.7-7.844c4.203-19.03,11.823-37.139,22.49-53.449c2.358-3.67,2.065-8.446-0.724-11.8l-23.714-28.65
		l31.134-31.105l28.6,23.7c3.4,2.816,8.244,3.07,11.919,0.624c16.258-10.738,34.363-18.374,53.4-22.523
		c4.264-0.981,7.419-4.584,7.828-8.94l3.57-37.3h44.23l3.57,37.3c0.411,4.34,3.568,7.923,7.821,8.878
		c19.056,4.287,37.188,11.955,53.537,22.642c3.662,2.363,8.431,2.082,11.791-0.693l28.56-23.653l30.654,31.026l-23.739,28.7
		c-2.813,3.4-3.065,8.243-0.619,11.916c10.731,16.23,18.35,34.315,22.466,53.332c0.822,4.223,4.312,7.409,8.592,7.844L409,374.9
		L409,419.11z"/>
	<path style="fill:#7BB8E5;" d="M207,266.163c-72.144,0-130.836,58.693-130.836,130.837S134.856,527.837,207,527.837
		S337.836,469.144,337.836,397S279.144,266.163,207,266.163z M207,507.837c-61.214,0.001-110.837-49.622-110.838-110.836
		s49.622-110.837,110.836-110.838s110.837,49.622,110.838,110.836V397C317.767,458.184,268.184,507.767,207,507.837z"/>
</g>
<path style="fill:#006DA5;" d="M246.061,352c5.523,0,10-4.477,10-10s-4.477-10-10-10h-78.122c-5.523,0-10,4.477-10,10
	s4.477,10,10,10h22.351c9.4,0,17.522,6,21.288,14h-43.639c-5.523,0-10,4.477-10,10s4.477,10,10,10H211.6
	c-1.275,2.318-2.846,4.46-4.672,6.374c-4.431,4.353-10.427,6.741-16.638,6.626h-22.351c-5.62,0.102-10.092,4.741-9.99,10.36
	c0.049,2.703,1.171,5.275,3.119,7.149l55.875,52.891c4.004,3.795,10.327,3.626,14.122-0.378c3.795-4.004,3.626-10.327-0.378-14.122
	l-37.707-35.659c10.59-0.589,20.591-5.062,28.089-12.564c5.765-5.639,9.788-12.816,11.588-20.677h13.4c5.523,0,10-4.477,10-10
	s-4.477-10-10-10h-13.414c-1.094-4.966-3.044-9.703-5.763-14H246.061z"/>
</svg>
