<?xml version="1.0" encoding="utf-8"?>
<!-- Generator: Adobe Illustrator 22.1.0, SVG Export Plug-In . SVG Version: 6.00 Build 0)  -->
<svg version="1.1" id="Layer_1" xmlns="http://www.w3.org/2000/svg" xmlns:xlink="http://www.w3.org/1999/xlink" x="0px" y="0px"
	 viewBox="0 0 75 60.9" style="enable-background:new 0 0 75 60.9;" xml:space="preserve">
<style type="text/css">
	.st0{clip-path:url(#SVGID_2_);fill:#006DA5;}
	.st1{fill:#7BB8E5;}
	.st2{display:none;fill:#7BB8E5;}
</style>
<g>
	<g>
		<defs>
			<rect id="SVGID_1_" x="0" width="75" height="60.9"/>
		</defs>
		<clipPath id="SVGID_2_">
			<use xlink:href="#SVGID_1_"  style="overflow:visible;"/>
		</clipPath>
		<path class="st0" d="M23.5,35.6c0.8,0,1.5-0.7,1.5-1.5s-0.7-1.5-1.5-1.5H11.6c-0.8,0-1.5,0.7-1.5,1.5s0.7,1.5,1.5,1.5H15
			c1.4,0,2.7,0.8,3.3,2.1h-6.7c-0.8,0-1.5,0.7-1.5,1.5c0,0.8,0.7,1.5,1.5,1.5h6.7c-0.6,1.3-1.9,2.1-3.3,2.1h-3.4
			c-0.6,0-1.2,0.4-1.4,0.9c-0.2,0.6-0.1,1.2,0.4,1.6l8.5,8c0.3,0.3,0.7,0.4,1,0.4c0.4,0,0.8-0.2,1.1-0.5c0.3-0.3,0.4-0.7,0.4-1.1
			c0-0.4-0.2-0.8-0.5-1l-5.8-5.4c2.9-0.2,5.4-2.2,6.1-5.1h2.1c0.8,0,1.5-0.7,1.5-1.5c0-0.8-0.7-1.5-1.5-1.5h-2.1
			c-0.2-0.7-0.5-1.5-0.9-2.1L23.5,35.6L23.5,35.6z M23.5,35.6"/>
		<path class="st0" d="M67.5,0.1H12.3c-4.1,0-7.5,3.4-7.5,7.5v23.6c-5,5.3-6.2,13.2-3,19.8C5,57.6,12,61.5,19.3,60.7
			c7.3-0.7,13.4-5.9,15.2-13h33c4.1,0,7.5-3.4,7.5-7.5V7.6C75,3.5,71.6,0.1,67.5,0.1L67.5,0.1z M7.8,13.6H72v6.6H7.8V13.6z
			 M12.3,3.1h55.2c2.5,0,4.5,2,4.5,4.5v3H7.8v-3C7.8,5.1,9.8,3.1,12.3,3.1L12.3,3.1z M17.5,57.8C9.5,57.8,3,51.3,3,43.2
			c0-8,6.5-14.6,14.6-14.6c8,0,14.6,6.5,14.6,14.6C32.1,51.3,25.6,57.8,17.5,57.8L17.5,57.8z M67.5,44.7H35c0-0.5,0.1-0.9,0.1-1.4
			c0-6.5-3.6-12.4-9.3-15.5c-5.7-3.1-12.6-2.7-18,0.9v-5.4H72v17C72,42.7,70,44.7,67.5,44.7L67.5,44.7z M67.5,44.7"/>
	</g>
	<path class="st1" d="M60.1,29c-2.2,0-4.2,1.2-5.3,3.2c-1.3-2.4-4-3.7-6.7-3c-2.6,0.7-4.5,3-4.5,5.8c0,2.7,1.9,5.1,4.5,5.8
		c2.6,0.7,5.4-0.6,6.7-3c1.3,2.6,4.4,3.8,7.1,2.9c2.8-0.9,4.4-3.7,4-6.6C65.5,31.1,63,29,60.1,29L60.1,29z M49.6,37.8
		c-1.2,0-2.3-0.7-2.7-1.8c-0.5-1.1-0.2-2.4,0.6-3.2c0.8-0.8,2.1-1.1,3.2-0.6c1.1,0.5,1.8,1.5,1.8,2.7C52.5,36.5,51.2,37.8,49.6,37.8
		L49.6,37.8z M60.1,37.8c-1.2,0-2.3-0.7-2.7-1.8c-0.5-1.1-0.2-2.4,0.6-3.2c0.8-0.8,2.1-1.1,3.2-0.6c1.1,0.5,1.8,1.5,1.8,2.7
		C63,36.5,61.7,37.8,60.1,37.8L60.1,37.8z M60.1,37.8"/>
</g>
<rect x="-33.6" y="2.2" class="st2" width="8.6" height="6.1"/>
</svg>
