<?xml version="1.0" encoding="iso-8859-1"?>
<!-- Generator: Adobe Illustrator 22.1.0, SVG Export Plug-In . SVG Version: 6.00 Build 0)  -->
<svg version="1.1" id="Layer_1" xmlns="http://www.w3.org/2000/svg" xmlns:xlink="http://www.w3.org/1999/xlink" x="0px" y="0px"
	 viewBox="0 0 60.293 60.894" style="enable-background:new 0 0 60.293 60.894;" xml:space="preserve">
<g>
	<path style="fill:#016BAE;" d="M53.496,36.212l-0.289,0.156c-1.261-1.513-3.431-2.097-5.085-1.258l-0.732,0.394
		c-1.793-1.508-4.338-1.734-6.369-0.565l-3.927,2.135h-5.227c-1.129-0.001-2.243-0.257-3.261-0.747l-0.72-0.348
		c-4.189-2.039-9.168-1.552-12.884,1.258c-0.017,0.013-0.035,0.027-0.051,0.042l-1.738,1.548c-0.647,0.575-1.41,1.003-2.239,1.254
		l-0.98-3.214c-0.104-0.34-0.419-0.574-0.775-0.574H0.811c-0.487,0-0.863,0.426-0.805,0.909l2.803,22.979
		c0.05,0.407,0.395,0.713,0.805,0.713h12.61c0.545,0,0.934-0.526,0.775-1.047l-1.651-5.417l5.141-3.249
		c0.685-0.378,1.486-0.482,2.244-0.29c0.017,0.004,0.034,0.008,0.051,0.011l10.496,1.932c2.858,0.511,5.805,0.096,8.41-1.187
		c0.034-0.018,0.068-0.037,0.099-0.059l18.153-12.464c0.353-0.243,0.457-0.719,0.236-1.086
		C58.798,35.741,55.853,34.935,53.496,36.212L53.496,36.212z M48.863,36.552c0.931-0.467,2.103-0.093,2.863,0.615l-6.85,3.695
		L44.5,41.061c-0.214-0.6-0.524-1.162-0.916-1.665L48.863,36.552z M41.805,36.358l0.02-0.01c1.232-0.713,2.751-0.708,3.978,0.012
		l-3.442,1.854c-0.647-0.469-1.381-0.804-2.16-0.984L41.805,36.358z M4.33,59.274L1.726,37.915h6.891l6.512,21.359H4.33z
		 M40.919,50.22c-2.28,1.109-4.853,1.467-7.348,1.021l-10.469-1.928c-1.158-0.286-2.381-0.12-3.422,0.464
		c-0.013,0.007-0.025,0.015-0.037,0.023l-4.785,3.025l-3.412-11.19c1.052-0.321,2.022-0.866,2.843-1.597l1.713-1.525
		c3.23-2.427,7.545-2.841,11.178-1.074l0.72,0.348c1.238,0.596,2.593,0.907,3.966,0.909h6.982c2.091,0.003,3.888,1.479,4.298,3.529
		l-5.025-0.227c-1.842-0.083-3.687,0.002-5.512,0.255c-1.071,0.148-0.848,1.754,0.222,1.605c1.728-0.238,3.474-0.319,5.217-0.241
		l5.955,0.27c0.013,0,0.024,0.001,0.037,0.001c0.448,0,0.81-0.363,0.81-0.81c0-0.122-0.004-0.241-0.011-0.361l0.801-0.423
		l8.628-4.653c1.341-0.726,3.002-0.469,4.059,0.63L40.919,50.22z M40.919,50.22"/>
	<path style="fill:#016BAE;" d="M6.766,56.063c0,1.008,0.607,1.917,1.539,2.302c0.931,0.385,2.004,0.172,2.715-0.54
		c0.713-0.713,0.926-1.785,0.54-2.716c-0.386-0.931-1.294-1.538-2.302-1.538C7.882,53.573,6.767,54.688,6.766,56.063L6.766,56.063z
		 M9.258,55.192c0.776,0,1.165,0.938,0.616,1.487c-0.549,0.549-1.487,0.16-1.487-0.616C8.387,55.582,8.777,55.193,9.258,55.192
		L9.258,55.192z M9.258,55.192"/>
	<path style="fill:#016BAE;" d="M30.147,31.179c5.791,0,11.012-3.489,13.227-8.838c2.216-5.35,0.991-11.508-3.104-15.602
		c-4.095-4.095-10.253-5.32-15.603-3.104s-8.838,7.436-8.838,13.227C15.839,24.765,22.243,31.17,30.147,31.179L30.147,31.179z
		 M30.147,4.166c5.135,0,9.765,3.093,11.73,7.838c1.966,4.744,0.879,10.205-2.752,13.837c-3.631,3.631-9.093,4.717-13.837,2.752
		c-4.744-1.966-7.838-6.595-7.838-11.73C17.458,9.853,23.138,4.174,30.147,4.166L30.147,4.166z M30.147,4.166"/>
	<path style="fill:#016BAE;" d="M28.352,16.81h-0.03l-2.402-0.025H25.91c-0.729,0-1.087,0.887-0.563,1.394l5.943,5.738
		c0.777,0.751,1.903-0.415,1.126-1.166l-4.477-4.322l0.365,0.003c2.124,0.023,3.962-1.472,4.375-3.555l1.657,0.018h0.008
		c0.448,0.002,0.812-0.359,0.815-0.806c0.003-0.448-0.358-0.813-0.806-0.815l-1.655-0.018c-0.126-0.729-0.435-1.414-0.898-1.991
		l2.575,0.027h0.008c0.448,0.003,0.812-0.358,0.815-0.806c0.003-0.447-0.358-0.812-0.806-0.815l-5.992-0.064l-2.402-0.026
		c-1.081-0.011-1.098,1.609-0.018,1.621l2.402,0.026c1.23,0.014,2.305,0.83,2.651,2.01l-5.075-0.054h-0.009
		c-1.081-0.006-1.089,1.615-0.008,1.621l5.073,0.054C30.645,16.019,29.569,16.809,28.352,16.81L28.352,16.81z M28.352,16.81"/>
	<path style="fill:#016BAE;" d="M50.049,9.14c-0.448,0-0.81,0.363-0.81,0.81v1.351c0,1.081,1.621,1.081,1.621,0V9.951
		C50.859,9.503,50.496,9.14,50.049,9.14L50.049,9.14z M50.049,9.14"/>
	<path style="fill:#016BAE;" d="M50.049,13.192c-0.448,0-0.81,0.363-0.81,0.81v1.351c0,1.081,1.621,1.081,1.621,0v-1.351
		C50.859,13.555,50.496,13.192,50.049,13.192L50.049,13.192z M50.049,13.192"/>
	<path style="fill:#016BAE;" d="M47.347,11.842c-1.081,0-1.081,1.621,0,1.621h1.351c1.081,0,1.081-1.621,0-1.621H47.347z
		 M47.347,11.842"/>
	<path style="fill:#016BAE;" d="M52.75,13.463c1.081,0,1.081-1.621,0-1.621h-1.351c-1.081,0-1.081,1.621,0,1.621H52.75z
		 M52.75,13.463"/>
	<path style="fill:#016BAE;" d="M14.507,0c-0.448,0-0.81,0.363-0.81,0.81v1.351c0,1.081,1.621,1.081,1.621,0V0.81
		C15.318,0.363,14.955,0,14.507,0L14.507,0z M14.507,0"/>
	<path style="fill:#016BAE;" d="M14.507,4.052c-0.448,0-0.81,0.363-0.81,0.81v1.351c0,1.081,1.621,1.081,1.621,0V4.862
		C15.318,4.415,14.955,4.052,14.507,4.052L14.507,4.052z M14.507,4.052"/>
	<path style="fill:#016BAE;" d="M11.806,2.701c-1.081,0-1.081,1.621,0,1.621h1.351c1.081,0,1.081-1.621,0-1.621H11.806z
		 M11.806,2.701"/>
	<path style="fill:#016BAE;" d="M17.209,2.701h-1.351c-1.081,0-1.081,1.621,0,1.621h1.351C18.289,4.322,18.289,2.701,17.209,2.701
		L17.209,2.701z M17.209,2.701"/>
</g>
</svg>
