<?xml version="1.0" encoding="utf-8"?>
<!-- Generator: Adobe Illustrator 22.1.0, SVG Export Plug-In . SVG Version: 6.00 Build 0)  -->
<svg version="1.1" id="Layer_1" xmlns="http://www.w3.org/2000/svg" xmlns:xlink="http://www.w3.org/1999/xlink" x="0px" y="0px"
	 viewBox="0 0 60 60" style="enable-background:new 0 0 60 60;" xml:space="preserve">
<style type="text/css">
	.st0{fill:#006DA5;}
	.st1{clip-path:url(#SVGID_2_);fill:#006DA5;}
	.st2{display:none;fill:#43B979;}
</style>
<path class="st0" d="M36.2,52.4l1.2,1.5c0.8-0.6,1.5-1.3,2.1-2.1l-1.5-1.2C37.4,51.4,36.9,52,36.2,52.4L36.2,52.4z M36.2,52.4"/>
<g>
	<g>
		<rect x="51.3" y="50.3" class="st0" width="1.9" height="1.9"/>
		<rect x="51.3" y="46.5" class="st0" width="1.9" height="1.9"/>
		<rect x="51.3" y="42.6" class="st0" width="1.9" height="1.9"/>
	</g>
	<g>
		<rect x="6.8" y="26.1" class="st0" width="1.9" height="1.9"/>
		<rect x="6.8" y="30" class="st0" width="1.9" height="1.9"/>
		<rect x="6.8" y="33.9" class="st0" width="1.9" height="1.9"/>
	</g>
	<g>
		<g>
			<defs>
				<rect id="SVGID_1_" width="60" height="60"/>
			</defs>
			<clipPath id="SVGID_2_">
				<use xlink:href="#SVGID_1_"  style="overflow:visible;"/>
			</clipPath>
			<path class="st1" d="M39.5,39.1l-1.5,1.2c1.1,1.5,1.7,3.4,1.7,5.2c0,1.2-0.2,2.4-0.7,3.5l1.8,0.8c0.6-1.3,0.9-2.8,0.9-4.3
				C41.6,43.2,40.9,40.9,39.5,39.1L39.5,39.1z M39.5,39.1"/>
			<path class="st1" d="M58.3,17.7L34.1,1.3c-2.4-1.6-5.7-1.6-8.2,0L11.6,11V7.7h1.9V1.9H1.9v5.8h1.9v8.5l-2.2,1.5
				C0.6,18.4,0,19.6,0,20.9v0.3c0,1.8,1.2,3.3,2.9,3.8v31.1h16.3c2.6,2.4,6,3.9,9.8,3.9H31c3.8,0,7.2-1.5,9.8-3.9h16.3V25
				c1.7-0.4,2.9-2,2.9-3.8v-0.3C60,19.6,59.4,18.4,58.3,17.7L58.3,17.7z M3.9,3.9h7.7v1.9H3.9V3.9z M5.8,7.7h3.9v4.5l-3.9,2.6V7.7z
				 M31,58.1H29c-6.9,0-12.6-5.6-12.6-12.6c0-2.9,1-5.7,2.8-8l5.4-6.5h10.7l5.4,6.5c1.8,2.2,2.8,5.1,2.8,8
				C43.5,52.4,37.9,58.1,31,58.1L31,58.1z M35.3,29H24.7l-4.9-6.6c-0.2-0.3-0.4-0.7-0.4-1.2c0-1.1,0.9-1.9,1.9-1.9
				c0.5,0,0.8,0.5,1.3,1.4c0.6,1,1.4,2.4,3,2.4c1.7,0,2.4-1.4,3-2.4c0.6-1,0.9-1.4,1.3-1.4c0.5,0,0.8,0.5,1.3,1.4
				c0.6,1,1.4,2.4,3,2.4c1.7,0,2.4-1.4,3-2.4c0.6-1,0.9-1.4,1.3-1.4c1.1,0,1.9,0.9,1.9,1.9c0,0.4-0.1,0.8-0.4,1.2L35.3,29z
				 M42.6,54.2c1.8-2.4,2.9-5.4,2.9-8.7c0-3.3-1.2-6.6-3.3-9.2L37,30l4.8-6.4c0.5-0.7,0.8-1.5,0.8-2.3c0-2.1-1.7-3.9-3.9-3.9
				c-1.7,0-2.4,1.4-3,2.4c-0.6,1-0.9,1.4-1.3,1.4c-0.5,0-0.8-0.5-1.3-1.4c-0.6-1-1.4-2.4-3-2.4c-1.7,0-2.4,1.4-3,2.4
				c-0.6,1-0.9,1.4-1.3,1.4c-0.5,0-0.8-0.5-1.3-1.4c-0.6-1-1.4-2.4-3-2.4c-2.1,0-3.9,1.7-3.9,3.9c0,0.8,0.3,1.7,0.8,2.3L23,30
				l-5.2,6.3c-2.1,2.6-3.3,5.9-3.3,9.2c0,3.3,1.1,6.3,2.9,8.7H4.8V25c0.5-0.1,0.9-0.3,1.3-0.6L30,7.9l23.9,16.6
				c0.4,0.3,0.8,0.5,1.3,0.6v29.2H42.6z M58.1,21.2c0,1.1-0.9,2-2,2c-0.4,0-0.8-0.1-1.1-0.4L30.4,5.8h-0.8L5,22.9
				c-0.3,0.2-0.7,0.4-1.1,0.4c-1.1,0-2-0.9-2-2v-0.3c0-0.7,0.3-1.3,0.9-1.6L27,2.9c1.8-1.2,4.2-1.2,6,0l24.2,16.4
				c0.5,0.4,0.9,1,0.9,1.6V21.2z M58.1,21.2"/>
		</g>
	</g>
</g>
<rect x="-32.8" y="10.3" class="st2" width="5.9" height="5.9"/>
<path class="st0" d="M34.6,42.9h-2.2c-0.1-1.2-0.8-2.4-1.8-3.1h4c0.2,0,0.4-0.2,0.4-0.4s-0.2-0.4-0.4-0.4h-9.3
	c-0.2,0-0.4,0.2-0.4,0.4s0.2,0.4,0.4,0.4H28c1.8,0,3.3,1.4,3.5,3.1h-6.2c-0.2,0-0.4,0.2-0.4,0.4c0,0.2,0.2,0.4,0.4,0.4h6.2
	c-0.2,1.8-1.7,3.1-3.5,3.1h-2.7c-0.2,0-0.4,0.2-0.4,0.5c0,0.1,0.1,0.2,0.1,0.3l6.6,6.3c0.2,0.2,0.5,0.2,0.6,0c0.2-0.2,0.2-0.5,0-0.6
	l-5.8-5.5H28c2.3,0,4.2-1.8,4.4-4h2.2c0.2,0,0.4-0.2,0.4-0.4C35.1,43,34.9,42.9,34.6,42.9L34.6,42.9z M34.6,42.9"/>
</svg>
